<svg width="32" height="32" viewBox="0 0 24 24" fill="none" xmlns="http://www.w3.org/2000/svg">
  <path d="M15 17H20L18.595 15.595C18.214 15.214 18 14.697 18 14.159V11C18 7.72 15.82 4.93 12.85 4.14V4C12.85 3.53587 12.4705 3.15833 12 3.15833C11.5295 3.15833 11.15 3.53587 11.15 4V4.14C8.18 4.93 6 7.72 6 11V14.159C6 14.697 5.786 15.214 5.405 15.595L4 17H9M15 17V18C15 19.6569 13.6569 21 12 21C10.3431 21 9 19.6569 9 18V17M15 17H9" stroke="white" stroke-width="2" stroke-linecap="round" stroke-linejoin="round"/>
</svg>
